PathFileType	4	(X/Y/Z)	65_2_10_p0_0-270.trc
DataRate	CameraRate	NumFrames	NumMarkers	Units	OrigDataRate	OrigDataStartFrame	OrigNumFrames
48.0	48.0	6	27	m	48.0	135	271
Frame#	Time	RHip			RKnee			RAnkle			RBigToe			RSmallToe			RHeel			LHip			LKnee			LAnkle			LBigToe			LSmallToe			LHeel			Neck			Head			Nose			RShoulder			RElbow			RWrist			RThumb			RIndex			RPinky			LShoulder			LElbow			LWrist			LThumb			LIndex			LPinky			
		X1	Y1	Z1	X2	Y2	Z2	X3	Y3	Z3	X4	Y4	Z4	X5	Y5	Z5	X6	Y6	Z6	X7	Y7	Z7	X8	Y8	Z8	X9	Y9	Z9	X10	Y10	Z10	X11	Y11	Z11	X12	Y12	Z12	X13	Y13	Z13	X14	Y14	Z14	X15	Y15	Z15	X16	Y16	Z16	X17	Y17	Z17	X18	Y18	Z18	X19	Y19	Z19	X20	Y20	Z20	X21	Y21	Z21	X22	Y22	Z22	X23	Y23	Z23	X24	Y24	Z24	X25	Y25	Z25	X26	Y26	Z26	X27	Y27	Z27	
135	2.8125	0.39600860099255886	0.6222504577900747	0.363934365428275	0.3663524887262329	0.8700831863740032	0.7477084703988692	0.28579357928990834	0.9944465087298496	1.1400280959701672	0.2874024494262955	0.9182269903522897	1.227786236147199	0.33137058951440707	0.95556374762154	1.2326495289490265	0.2617589419699308	1.084358289939078	1.1912569455874482	0.16195182338076064	0.668697212460629	0.3370928000338458	0.13355013550472217	0.8672306809386294	0.7146164372777921	0.1075254150088426	1.0380401012473448	1.1458649431702113	0.12838964399150588	0.882549829944122	1.204301672965404	0.06986052206321666	0.9175005393418295	1.1873571321823468	0.11026211893348273	1.0698646459654673	1.1738571161762672	0.31513794918876964	0.4972776125204286	-0.2191283439455664	0.39622590212741177	0.4293080872829884	-0.454897668885835	0.37411046298789896	0.37591481529712456	-0.31606388898845783	0.4761439119496559	0.5380302119998307	-0.10720854572576767	0.5241616348974837	0.5816059892357426	0.14858101973936547	0.5472566545062169	0.6724061097181951	0.3891171931565071	0.48297464901477216	0.6803916344769706	0.5345135647143772	0.5053633925256266	0.6665549068881549	0.5402077349949217	0.5233330118839598	0.7325271182381116	0.5315248757728909	0.14933260091727546	0.5417067490305202	-0.15395520331786042	0.0703622049304336	0.6283793899710269	0.09058899229186726	0.008693281724598802	0.6421498976319466	0.3409369662318896	0.034235861479814104	0.6810163658254801	0.4465304295932026	0.002245693376344619	0.6700307731555933	0.4769019788616816	-0.011742067336866323	0.6934640933359729	0.46263695345577843
136	2.8333333333333335	0.39665055773941077	0.6185304169309854	0.35628735553867796	0.3623616776833146	0.8866441417040917	0.749938183359372	0.2893432509137157	1.0105466064788624	1.1444482481698535	0.28681359008366075	0.914567832372571	1.2243603829317298	0.3309710126968005	0.9531550014927392	1.2317997086662338	0.26162433380847033	1.083709516825068	1.1910144285192164	0.15727839361596035	0.685318078846669	0.3411748541360982	0.13105354559787832	0.8549984934957208	0.720910733197557	0.10756920565459495	1.0390741421615455	1.1422474538695457	0.1259809586835048	0.8679409168904217	1.1998738353856886	0.06878659458191196	0.9120465550557724	1.182452953197913	0.10965237643032072	1.068840955306564	1.1738125660057883	0.3152491457791566	0.49730528293916615	-0.21910249703614607	0.3962724791664702	0.42931777004150634	-0.45471235444560065	0.37360463159583773	0.3780323672690102	-0.31000510513044477	0.47629326046215903	0.5379078203153697	-0.11069463095941116	0.5199176062529685	0.5689005874902255	0.14868476669679878	0.5471740714292741	0.6722601871514058	0.3890351207493548	0.4828038936792413	0.6811147250238943	0.534160882827157	0.5089438940445087	0.6795154692811896	0.5417064903750031	0.519321859362269	0.7204139109594301	0.5302369102738097	0.14941945083439895	0.5418297081578922	-0.153939067490402	0.07053646173137529	0.6298375570143852	0.09414012804539498	0.012821172839185473	0.6463269521641263	0.3458990547067901	0.03859522425598452	0.6701339652045512	0.4539649364980404	0.002288331694093176	0.6698825194023447	0.4804475642168918	-0.011770048351458506	0.6957216442022414	0.46747616437575373
137	2.8541666666666665	0.3967090704641267	0.618573734529607	0.35623220310043807	0.3624049585879565	0.8866431266075665	0.7500126334547185	0.2893992494698237	1.0108069214823097	1.1444504445153558	0.28930193050396913	0.9279406236949757	1.2293299453162925	0.3276686538189561	0.9624240485082172	1.2324733368090846	0.26189634581785093	1.084532134917556	1.1885554133373728	0.1572747284516859	0.6837352488989091	0.33715901266704784	0.1335111165624878	0.8670399416016011	0.7188232673400319	0.10755544933429165	1.0390454190853373	1.1421363258347816	0.13059526822987327	0.8962697086338571	1.2079193272115765	0.07275191865174811	0.9358100367503762	1.1917635111994942	0.11027269677390943	1.0712131236220024	1.1731051649194175	0.31530165929855586	0.49724212889089586	-0.21908321797875255	0.3961916766803301	0.4294164328754748	-0.4547955311171563	0.37383482391027345	0.37723411559699177	-0.3129910420508418	0.4768362506527734	0.5368000701076232	-0.1141637962807738	0.5196740214195769	0.5669454019068852	0.14512136592075037	0.547124205905737	0.6721701411555223	0.38908748794193615	0.4826468156698054	0.6787992934199323	0.5302116366061975	0.5091372661965364	0.6795376591196964	0.5414764390634799	0.5192173135961504	0.7202825471207738	0.5256391415406674	0.1501052933796489	0.5407330588076249	-0.1570371263207397	0.07524273627035094	0.6154847244492192	0.09872409187077076	0.01292855905936829	0.646097679329751	0.34593577691757565	0.03985628926979387	0.6688039615367075	0.4538458835629481	0.0026652391979508396	0.6694840616685163	0.48092968247300066	-0.0063714899619419	0.6815709669540987	0.4715046500797787
138	2.875	0.396720404679924	0.6184107810109486	0.35608594827373546	0.36238279580480287	0.8866494375876002	0.7498677238504233	0.28930531162651696	1.0107498428577186	1.1445027458101742	0.2870273529238633	0.9162518659112117	1.225243944975435	0.3250219966157666	0.949966189798533	1.2364674865709586	0.2615961189035191	1.0858503909599366	1.1913637380621185	0.15826066491930696	0.6819018637505325	0.33361952951467183	0.1310932279183763	0.8554506791577305	0.7202922137869621	0.10756143883400865	1.0392310633450272	1.1419457840551097	0.12852001987811779	0.8829215242399617	1.2038311947555946	0.07222874185824299	0.933680515877141	1.1916186873544148	0.10973018006449656	1.0706676767878014	1.1729167866958568	0.31856930188233357	0.5100032344105483	-0.22086600573467002	0.3959953728832715	0.43112409784506583	-0.45182238308602424	0.37333893265968293	0.37816007323573025	-0.30998190032516704	0.47689157369584106	0.5369283577851018	-0.11421529956302072	0.5199183251479539	0.569073010730286	0.1448506599909628	0.5470765205020408	0.6719725959865416	0.3891670006063597	0.48305931775122046	0.6803405336779427	0.5344045373542669	0.5053360319961788	0.6655278273994225	0.5402992390497114	0.5198221462140191	0.7225864012033454	0.528884316323684	0.1501632612481166	0.5408587089188386	-0.15703880836871426	0.07527403017123764	0.6131881646882357	0.09525041576073115	0.012944644450715876	0.6457288884011247	0.3498887471876274	0.04936956426064221	0.6564866454640387	0.4568216495087542	0.011749648431249426	0.6719937770420031	0.49101374978988405	-0.006370738226927438	0.6814241854921226	0.47660820103660595
139	2.8958333333333335	0.3967533790182063	0.6184374813449857	0.35608196332827174	0.3661970243697835	0.9015019506602998	0.7523700158004333	0.28925802630020847	1.0106762276347037	1.1445268867259377	0.2825700166751892	0.9181321117820394	1.231724964848345	0.3254050102121721	0.9508634487933083	1.236891554741067	0.26186447126366436	1.085923623299075	1.1915924151069401	0.15732917199246496	0.6832305081071764	0.33719594770010825	0.13378222604207227	0.8701914305462439	0.7232536862425266	0.10753273787586011	1.0391617128997883	1.1420714894461943	0.13087421578398778	0.8991006376978747	1.2115654690707371	0.07276406285305234	0.9363317625863352	1.1917880716648146	0.1102464356465171	1.0713137871779064	1.1731722934042303	0.3153112852906256	0.4975861545610807	-0.21909522033131926	0.39601933394268224	0.43119014016896834	-0.45187923261170787	0.3733147061647225	0.3780089607041904	-0.3099369279184231	0.4769033024405113	0.5368879072960683	-0.11423178813200063	0.519981955994901	0.5690977454168467	0.14487118012800293	0.5428064571104045	0.659361027916937	0.3885484065406302	0.4826893122693543	0.6801286645030773	0.5346821497637355	0.5050553002864446	0.6647206317478024	0.5406300267809684	0.5267466294409072	0.7180883683696089	0.5290804716724793	0.1501545234752654	0.5409019139330281	-0.15704321361531565	0.07519942018623034	0.6154082658160916	0.09896976339075046	0.01311437157745279	0.6454367649042417	0.3502592868170545	0.058750415181145904	0.6300570609466492	0.458241021460391	0.0181924430374831	0.6574840119412035	0.49057177170029187	-0.005888860389002899	0.6811000254393458	0.47703316381200483
140	2.9166666666666665	0.39293366582802147	0.6330013305633895	0.3563273151917219	0.36630283598084923	0.9015604266628489	0.7524168471070666	0.2892054691030766	1.010445368738856	1.1445082440002448	0.28934072646209363	0.9279167378478353	1.2294691012192842	0.3257626578933129	0.9533824139154653	1.2377108752946668	0.2619400088895911	1.0889277031960272	1.1922367270081113	0.15743278061979196	0.6833673511955359	0.3371818410102652	0.13355045899679607	0.8668717888688996	0.7192955631096731	0.1037914212628258	1.037386596168884	1.1416930129080147	0.13091413813328484	0.8977663008250321	1.2095470158516475	0.07312011984990244	0.93980239634884	1.1916824214559185	0.11040188703639274	1.0733122879890615	1.1727220158787566	0.3147124664955872	0.5230483233443335	-0.22325631462537857	0.3961152811519477	0.42971620806781247	-0.45488340801815247	0.37330683199173514	0.3779116256404238	-0.3098597321900623	0.4769264079518704	0.5370575641527039	-0.1142583341181089	0.5199070262776968	0.5685155448616039	0.14885154393718877	0.5430386902825975	0.6605190645270937	0.3924014249242498	0.49045933228186206	0.6644129458221725	0.5344097080783716	0.5074502455856413	0.6507345961815494	0.5428812855080976	0.5294914607850372	0.7047250122675242	0.5351862347215504	0.14957020021660694	0.5420363582603548	-0.15391881913912336	0.0750516937202366	0.6149321083906409	0.10281912358801469	0.016536005011015136	0.6365156579847168	0.36171111239573805	0.0670763575954394	0.6050762133954113	0.4606870673627412	0.034740432865431936	0.6283265694584222	0.48967360015745803	0.002244077857414791	0.6694251590753666	0.4837962622142314
